<svg width="15" height="14" viewBox="0 0 15 14" fill="none" xmlns="http://www.w3.org/2000/svg">
<path d="M3.09375 0.25C2.47215 0.25 1.87601 0.49693 1.43647 0.936468C0.99693 1.37601 0.75 1.97215 0.75 2.59375V11.4062C0.75 12.0279 0.99693 12.624 1.43647 13.0635C1.87601 13.5031 2.47215 13.75 3.09375 13.75H8.22338C8.53118 13.7501 8.83599 13.6895 9.12038 13.5717C9.40478 13.454 9.66319 13.2814 9.88088 13.0637L13.5634 9.3805C13.7811 9.16285 13.9537 8.90445 14.0716 8.62005C14.1894 8.33565 14.25 8.03083 14.25 7.723V2.59375C14.25 1.97215 14.0031 1.37601 13.5635 0.936468C13.124 0.49693 12.5279 0.25 11.9062 0.25H3.09375ZM1.6875 2.59375C1.6875 2.22079 1.83566 1.8631 2.09938 1.59938C2.3631 1.33566 2.72079 1.1875 3.09375 1.1875H11.9062C12.2792 1.1875 12.6369 1.33566 12.9006 1.59938C13.1643 1.8631 13.3125 2.22079 13.3125 2.59375V7.75H10.5938C9.97215 7.75 9.37601 7.99693 8.93647 8.43647C8.49693 8.87601 8.25 9.47215 8.25 10.0938V12.8125H3.09375C2.72079 12.8125 2.3631 12.6643 2.09938 12.4006C1.83566 12.1369 1.6875 11.7792 1.6875 11.4062V2.59375ZM9.1875 12.43V10.0938C9.1875 9.72079 9.33566 9.3631 9.59938 9.09938C9.8631 8.83566 10.2208 8.6875 10.5938 8.6875H12.93C12.9204 8.69765 12.9107 8.70765 12.9008 8.7175L9.21787 12.4008C9.2079 12.4107 9.19777 12.4204 9.1875 12.43Z" fill="white"/>
</svg>
